<svg width="21" height="21" viewBox="0 0 21 21" fill="none" xmlns="http://www.w3.org/2000/svg">
<path d="M20.7031 20.3708H0.703125V0.37085H20.7031V20.3708Z" stroke="#E5E7EB"/>
<g clip-path="url(#clip0_329_346)">
<path d="M18.7031 3.37085H2.70312C1.6 3.37085 0.703125 4.26772 0.703125 5.37085V13.3708C0.703125 14.474 1.6 15.3708 2.70312 15.3708H6.46562C7.22187 15.3708 7.91563 14.9427 8.25313 14.2646L9.25313 12.2646C9.52812 11.7177 10.0875 11.3708 10.7 11.3708C11.3125 11.3708 11.8719 11.7177 12.1469 12.2646L13.1469 14.2646C13.4844 14.9427 14.1781 15.3708 14.9344 15.3708H18.7031C19.8062 15.3708 20.7031 14.474 20.7031 13.3708V5.37085C20.7031 4.26772 19.8062 3.37085 18.7031 3.37085ZM3.70312 8.87085C3.70312 8.34042 3.91384 7.83171 4.28891 7.45664C4.66398 7.08156 5.17269 6.87085 5.70312 6.87085C6.23356 6.87085 6.74227 7.08156 7.11734 7.45664C7.49241 7.83171 7.70312 8.34042 7.70312 8.87085C7.70312 9.40128 7.49241 9.90999 7.11734 10.2851C6.74227 10.6601 6.23356 10.8708 5.70312 10.8708C5.17269 10.8708 4.66398 10.6601 4.28891 10.2851C3.91384 9.90999 3.70312 9.40128 3.70312 8.87085ZM15.7031 6.87085C16.2336 6.87085 16.7423 7.08156 17.1173 7.45664C17.4924 7.83171 17.7031 8.34042 17.7031 8.87085C17.7031 9.40128 17.4924 9.90999 17.1173 10.2851C16.7423 10.6601 16.2336 10.8708 15.7031 10.8708C15.1727 10.8708 14.664 10.6601 14.2889 10.2851C13.9138 9.90999 13.7031 9.40128 13.7031 8.87085C13.7031 8.34042 13.9138 7.83171 14.2889 7.45664C14.664 7.08156 15.1727 6.87085 15.7031 6.87085Z" fill="white"/>
</g>
<defs>
<clipPath id="clip0_329_346">
<path d="M0.703125 2.37085H20.7031V18.3708H0.703125V2.37085Z" fill="white"/>
</clipPath>
</defs>
</svg>
