<svg width="60" height="62" viewBox="0 0 60 62" fill="none" xmlns="http://www.w3.org/2000/svg">
    <path d="M17.8865 29.1315H24.481C25.1448 29.1315 25.6795 28.5907 25.6795 27.9331C25.6795 27.2693 25.1448 26.7285 24.481 26.7285H17.8865C17.2228 26.7285 16.6881 27.2693 16.6881 27.9331C16.6881 28.5907 17.2228 29.1315 17.8865 29.1315Z" fill="#E6E3D9"/>
    <path d="M14.2913 27.9331C14.2913 27.2693 13.7504 26.7285 13.0928 26.7285H6.49835C5.8346 26.7285 5.29376 27.2693 5.29376 27.9331C5.29376 28.5907 5.8346 29.1315 6.49835 29.1315H13.0928C13.7504 29.1315 14.2913 28.5907 14.2913 27.9331Z" fill="#E6E3D9"/>
    <mask id="mask0_389_220" style="mask-type:luminance" maskUnits="userSpaceOnUse" x="0" y="0" width="60" height="62">
    <path d="M0.5 0.319824H59.5V61.6798H0.5V0.319824Z" fill="white"/>
    </mask>
    <g mask="url(#mask0_389_220)">
    <path d="M59.2603 12.3411C59.2603 5.72819 53.8827 0.350586 47.2698 0.350586C46.5938 0.350586 18.3905 0.350586 17.2904 0.350586C14.6416 0.350586 12.4905 2.50163 12.4905 5.14434V17.141H1.69844C1.03469 17.141 0.5 17.6757 0.5 18.3394V32.7268C0.5 33.3906 1.03469 33.9253 1.69844 33.9253H12.4905V56.714C12.4905 59.3567 14.6416 61.5078 17.2904 61.5078H44.8668C47.5156 61.5078 49.6667 59.3567 49.6667 56.714V24.0919C55.1303 22.9795 59.2603 18.1305 59.2603 12.3411ZM17.2904 2.74746H40.0792C37.7745 4.48059 36.1151 7.01882 35.519 9.94423H14.8874V5.14434C14.8874 3.82298 15.9629 2.74746 17.2904 2.74746ZM28.0825 19.5379V21.9348H2.89687V19.5379H28.0825ZM2.89687 24.3316H28.0825V31.5284H2.89687V24.3316ZM44.8668 59.1109H17.2904C15.9629 59.1109 14.8874 58.0354 14.8874 56.714V51.9141H47.2698V56.714C47.2698 58.0354 46.1943 59.1109 44.8668 59.1109ZM47.2698 49.5173H14.8874V33.9253H29.2809C29.9447 33.9253 30.4794 33.3906 30.4794 32.7268V18.3394C30.4794 17.6757 29.9447 17.141 29.2809 17.141H14.8874V12.3411H35.2731C35.2731 18.954 40.6569 24.3316 47.2698 24.3316V49.5173ZM47.2698 21.9348C41.9782 21.9348 37.6761 17.6327 37.6761 12.3411C37.6761 7.04954 41.9782 2.74746 47.2698 2.74746C52.5552 2.74746 56.8634 7.04954 56.8634 12.3411C56.8634 17.6327 52.5552 21.9348 47.2698 21.9348Z" fill="#E6E3D9"/>
    </g>
    <path d="M50.9141 8.34641L45.4688 13.7916L43.619 11.9417C43.1519 11.4746 42.3898 11.4746 41.9227 11.9417C41.4556 12.4088 41.4556 13.1709 41.9227 13.638L44.6207 16.336C45.0878 16.8031 45.8499 16.8031 46.317 16.336L52.6103 10.0427C53.0835 9.57557 53.0835 8.81349 52.6103 8.34641C52.1432 7.87932 51.3873 7.87932 50.9141 8.34641Z" fill="#E6E3D9"/>
    <path d="M34.0747 54.311H28.0825C27.4187 54.311 26.884 54.8519 26.884 55.5095C26.884 56.1732 27.4187 56.7141 28.0825 56.7141H34.0747C34.7384 56.7141 35.2731 56.1732 35.2731 55.5095C35.2731 54.8519 34.7384 54.311 34.0747 54.311Z" fill="#E6E3D9"/>
    <path d="M26.8838 7.54755H32.876C33.5398 7.54755 34.0745 7.00672 34.0745 6.34297C34.0745 5.68537 33.5398 5.14453 32.876 5.14453H26.8838C26.2201 5.14453 25.6793 5.68537 25.6793 6.34297C25.6793 7.00672 26.2201 7.54755 26.8838 7.54755Z" fill="#E6E3D9"/>
    </svg>
    