<svg width="59" height="60" viewBox="0 0 59 60" fill="none" xmlns="http://www.w3.org/2000/svg">
<path d="M21.0814 24.3467H6.41834C5.91392 24.3467 5.49646 24.7583 5.49646 25.2628C5.49646 25.7672 5.91392 26.1788 6.41834 26.1788H21.0814V24.3467Z" fill="#E6E3D9"/>
<path d="M21.0814 19.7666H6.41834C5.91392 19.7666 5.49646 20.1783 5.49646 20.6827C5.49646 21.1871 5.91392 21.5988 6.41834 21.5988H21.0814V19.7666Z" fill="#E6E3D9"/>
<path d="M23.4586 12.4323L25.1574 10.6001H8.25049C7.24165 10.6001 6.41833 11.4292 6.41833 12.4323V15.1863C6.41833 16.1893 7.24165 17.0185 8.25049 17.0185H21.0814V16.8329C21.0814 16.2821 21.1684 15.7313 21.4003 15.1863H8.25049V12.4323H23.4586Z" fill="#E6E3D9"/>
<path d="M29.3261 39.9259H52.2397C52.7441 39.9259 53.1558 39.5143 53.1558 39.0098C53.1558 38.5054 52.7441 38.0938 52.2397 38.0938H29.3261C28.8217 38.0938 28.41 38.5054 28.41 39.0098C28.41 39.5143 28.8217 39.9259 29.3261 39.9259Z" fill="#E6E3D9"/>
<path d="M29.3261 35.3453H52.2397C52.7441 35.3453 53.1558 34.9337 53.1558 34.4293C53.1558 33.9248 52.7441 33.5132 52.2397 33.5132H29.3261C28.8217 33.5132 28.41 33.9248 28.41 34.4293C28.41 34.9337 28.8217 35.3453 29.3261 35.3453Z" fill="#E6E3D9"/>
<path d="M28.41 29.8492C28.41 30.3536 28.8217 30.7653 29.3261 30.7653H52.2397C52.7441 30.7653 53.1558 30.3536 53.1558 29.8492C53.1558 29.3448 52.7441 28.9331 52.2397 28.9331H29.3261C28.8217 28.9331 28.41 29.3448 28.41 29.8492Z" fill="#E6E3D9"/>
<mask id="mask0_389_136" style="mask-type:luminance" maskUnits="userSpaceOnUse" x="0" y="0" width="37" height="52">
<path d="M0 0.499512H36.3533V51.1506H0V0.499512Z" fill="white"/>
</mask>
<g mask="url(#mask0_389_136)">
<path d="M2.74824 48.176C2.24382 48.176 1.83216 47.7644 1.83216 47.2599V8.30914H7.79248C8.33749 8.30914 8.79553 7.75833 8.70856 7.20753L7.83886 2.35462H32.9905C33.4949 2.35462 33.9065 2.76628 33.9065 3.2707V7.8511H35.7445V3.2707C35.7445 1.75743 34.5037 0.522461 32.9905 0.522461H6.78363C6.0009 0.522461 5.27036 0.841351 4.76593 1.39216L0.736343 5.78702C0.272505 6.29145 0 6.93502 0 7.66557V47.2599C0 48.7732 1.23497 50.0082 2.74824 50.0082H16.4489C15.6719 49.4574 14.895 48.8196 14.205 48.176H2.74824ZM6.0009 2.71989L6.69086 6.47698H2.5685L6.0009 2.71989Z" fill="#E6E3D9"/>
</g>
<path d="M52.2399 51.8408H37.484L35.1475 53.673H52.2399C52.7443 53.673 53.156 53.2613 53.156 52.7569C53.156 52.2525 52.7443 51.8408 52.2399 51.8408Z" fill="#E6E3D9"/>
<path d="M52.2395 47.2603H39.5013C39.7275 47.6719 39.8666 48.1299 39.8666 48.6344C39.8666 48.7735 39.8666 48.9533 39.8202 49.0924H52.2395C52.7439 49.0924 53.1556 48.6808 53.1556 48.1763C53.1556 47.6719 52.7439 47.2603 52.2395 47.2603Z" fill="#E6E3D9"/>
<path d="M52.2398 42.6743H33.9994L36.336 44.5123H52.2398C52.7442 44.5123 53.1559 44.0948 53.1559 43.5962C53.1559 43.0918 52.7442 42.6743 52.2398 42.6743Z" fill="#E6E3D9"/>
<mask id="mask1_389_136" style="mask-type:luminance" maskUnits="userSpaceOnUse" x="21" y="9" width="38" height="51">
<path d="M21.5103 9.59131H59V59.5003H21.5103V9.59131Z" fill="white"/>
</mask>
<g mask="url(#mask1_389_136)">
<path d="M55.9038 9.68408H29.6912C28.9142 9.68408 28.1779 10.0088 27.6793 10.5538L23.6439 14.9544C23.1858 15.4589 22.9133 16.1024 22.9133 16.833V42.5876C23.5047 42.8601 24.1019 43.092 24.7455 43.2717V17.4766H30.7C31.2508 17.4766 31.7089 16.9721 31.6161 16.3749L30.7464 11.5162H55.9038C56.4082 11.5162 56.8199 11.9279 56.8199 12.4323V56.4216C56.8199 56.926 56.4082 57.3376 55.9038 57.3376H25.6616C25.1571 57.3376 24.7455 56.926 24.7455 56.4216V53.3544C24.1483 53.2617 23.5047 53.1225 22.9133 52.9428V56.381C22.9133 57.8884 24.1483 59.1292 25.6616 59.1292H55.9038C57.4171 59.1292 58.652 57.8884 58.652 56.381V12.4323C58.652 10.9248 57.4171 9.68408 55.9038 9.68408ZM25.476 15.6444L28.9142 11.8873L29.5984 15.6444H25.476Z" fill="#E6E3D9"/>
</g>
<path d="M5.49646 43.5962C5.49646 44.0948 5.91392 44.5123 6.41834 44.5123H11.0915C10.6798 43.9151 10.3552 43.3179 9.98989 42.6743H6.41834C5.91392 42.6743 5.49646 43.0918 5.49646 43.5962Z" fill="#E6E3D9"/>
<path d="M21.0813 39.9259V38.0938H17.2778C17.7765 38.7373 18.3273 39.3751 18.9245 39.9259H21.0813Z" fill="#E6E3D9"/>
<path d="M6.41834 38.0938C5.91392 38.0938 5.49646 38.5054 5.49646 39.0098C5.49646 39.5143 5.91392 39.9259 6.41834 39.9259H8.79551C8.56939 39.3345 8.43023 38.7373 8.2505 38.0938H6.41834Z" fill="#E6E3D9"/>
<path d="M21.0813 33.5132H14.8949C15.0746 34.1568 15.3066 34.7482 15.5791 35.3453H21.0813V33.5132Z" fill="#E6E3D9"/>
<path d="M6.41834 35.3453H7.83884C7.79246 34.8873 7.79246 34.4293 7.79246 33.9248C7.79246 33.7857 7.79246 33.6523 7.79246 33.5132H6.41834C5.91392 33.5132 5.49646 33.9248 5.49646 34.4293C5.49646 34.9337 5.91392 35.3453 6.41834 35.3453Z" fill="#E6E3D9"/>
<path d="M21.0814 28.9331H14.3442C14.2978 29.5245 14.3442 30.1681 14.3905 30.7653H21.0814V28.9331Z" fill="#E6E3D9"/>
<path d="M6.41834 30.7653H8.06496C8.15773 30.1681 8.29688 29.5245 8.47662 28.9331H6.41834C5.91392 28.9331 5.49646 29.3448 5.49646 29.8492C5.49646 30.3536 5.91392 30.7653 6.41834 30.7653Z" fill="#E6E3D9"/>
<path d="M29.7841 51.794V53.6726C29.7841 54.0378 29.9696 54.3625 30.2885 54.4959C30.6074 54.635 30.9784 54.5886 31.251 54.4089L37.6635 49.3647C37.8954 49.1849 38.0346 48.9066 38.0346 48.6341C38.0346 48.3558 37.8954 48.0833 37.6635 47.8978L31.251 42.8593C30.9784 42.6332 30.6074 42.5868 30.2885 42.7666C29.9696 42.9057 29.7841 43.2246 29.7841 43.5957V45.7467C26.5778 45.8395 23.3715 45.0162 20.6175 43.4565C15.1674 40.2966 11.9147 34.1566 12.5583 28.1035C12.5989 27.6455 12.3264 27.2338 11.8683 27.0946C11.4103 27.0077 10.9522 27.2338 10.8131 27.6455C10.0362 29.6632 9.62451 31.7736 9.62451 33.8783C9.62451 40.8416 14.2977 47.6253 20.9422 50.3271C23.2787 51.2896 25.8414 51.7476 28.3636 51.7476C28.868 51.8404 29.326 51.794 29.7841 51.794ZM31.6162 45.4742L35.6516 48.6341L31.6162 51.794V45.4742ZM11.5031 34.8407C12.8308 39.0095 15.7646 42.7666 19.7014 45.0568C22.7279 46.802 26.2589 47.6717 29.7841 47.6253V49.9619C27.0358 50.1938 24.1948 49.7763 21.6263 48.7269C15.9443 46.3903 11.8683 40.7953 11.5031 34.8407Z" fill="#E6E3D9"/>
<path d="M50.4076 26.1792C51.4107 26.1792 52.2398 25.3558 52.2398 24.347V21.5988C52.2398 20.5899 51.4107 19.7666 50.4076 19.7666H31.1583C30.1495 19.7666 29.3262 20.5899 29.3262 21.5988V24.347C29.3262 25.3558 30.1495 26.1792 31.1583 26.1792H50.4076ZM31.1583 21.5988H50.4076V24.347H31.1583V21.5988Z" fill="#E6E3D9"/>
</svg>
