<svg width="60" height="50" viewBox="0 0 60 50" fill="none" xmlns="http://www.w3.org/2000/svg">
    <path d="M49.3362 49.1971C48.759 49.1971 48.2877 48.7257 48.2877 48.1485V14.9592C48.2877 14.3771 48.759 13.9058 49.3362 13.9058C49.9183 13.9058 50.3848 14.3771 50.3848 14.9592V48.1485C50.3848 48.7257 49.9183 49.1971 49.3362 49.1971Z" fill="#E6E3D9"/>
    <mask id="mask0_389_248" style="mask-type:luminance" maskUnits="userSpaceOnUse" x="38" y="13" width="22" height="4">
    <path d="M38.6722 13.7422H59.4997V16.2049H38.6722V13.7422Z" fill="white"/>
    </mask>
    <g mask="url(#mask0_389_248)">
    <path d="M58.3549 16.0078H40.3173C39.7401 16.0078 39.2687 15.5364 39.2687 14.9592C39.2687 14.3771 39.7401 13.9058 40.3173 13.9058H58.3549C58.9369 13.9058 59.4035 14.3771 59.4035 14.9592C59.4035 15.5364 58.9369 16.0078 58.3549 16.0078Z" fill="#E6E3D9"/>
    </g>
    <path d="M51.7316 49.1973H46.9408C46.3636 49.1973 45.8922 48.7259 45.8922 48.1487C45.8922 47.5667 46.3636 47.1001 46.9408 47.1001H51.7316C52.3136 47.1001 52.7802 47.5667 52.7802 48.1487C52.7802 48.7259 52.3136 49.1973 51.7316 49.1973Z" fill="#E6E3D9"/>
    <path d="M46.1566 16.0077C45.5746 16.0077 45.108 15.5363 45.108 14.9591V10.0144C45.108 9.4372 45.5746 8.96582 46.1566 8.96582C46.7338 8.96582 47.2052 9.4372 47.2052 10.0144V14.9591C47.2052 15.5363 46.7338 16.0077 46.1566 16.0077Z" fill="#E6E3D9"/>
    <path d="M46.1569 11.0629C45.8394 11.0629 45.5364 10.9186 45.3392 10.6685L41.2218 5.53137C40.9717 5.21872 40.9188 4.78581 41.0967 4.42506C41.2699 4.0595 41.6403 3.82861 42.0395 3.82861H50.2695C50.6735 3.82861 51.0439 4.0595 51.2171 4.42506C51.3902 4.78581 51.3421 5.21872 51.092 5.53137L46.9746 10.6685C46.7774 10.9186 46.4744 11.0629 46.1569 11.0629ZM44.2281 5.92579L46.1569 8.33562L48.0857 5.92579H44.2281Z" fill="#E6E3D9"/>
    <mask id="mask1_389_248" style="mask-type:luminance" maskUnits="userSpaceOnUse" x="0" y="0" width="42" height="43">
    <path d="M0.5 0.54834H41.1353V42.0638H0.5V0.54834Z" fill="white"/>
    </mask>
    <g mask="url(#mask1_389_248)">
    <path d="M35.1948 41.8183H6.31525C4.88667 41.8183 3.72745 40.6543 3.72745 39.2257V28.1482C3.72745 27.874 3.511 27.6624 3.24164 27.6624C1.81786 27.6624 0.663452 26.5079 0.663452 25.0842V21.3901C0.663452 19.9663 1.81786 18.8119 3.24164 18.8119H4.29023L5.97374 7.79688C6.70968 3.59771 9.91317 0.567383 13.588 0.567383H27.9172C31.5824 0.567383 34.7907 3.59771 35.5363 7.76802L37.2102 18.8071H38.2588C39.6825 18.8071 40.8369 19.9663 40.8369 21.3901V25.0842C40.8369 26.5031 39.6825 27.6624 38.2588 27.6624C37.9894 27.6624 37.7777 27.874 37.7777 28.1434V39.2209C37.7777 40.6495 36.6185 41.8135 35.1948 41.8135V41.8183ZM3.24164 20.9091C2.97708 20.9091 2.76063 21.1255 2.76063 21.3901V25.0842C2.76063 25.3535 2.97708 25.5652 3.24164 25.5652C4.66541 25.5652 5.82463 26.7244 5.82463 28.1482V39.2257C5.82463 39.4999 6.04589 39.7211 6.31525 39.7211H35.1948C35.4593 39.7211 35.6758 39.4999 35.6758 39.2257V28.1482C35.6758 26.7244 36.835 25.5652 38.2588 25.5652C38.5233 25.5652 38.7398 25.3535 38.7398 25.0842V21.3901C38.7398 21.1255 38.5233 20.9091 38.2588 20.9091H36.3059C35.7912 20.9091 35.3487 20.5291 35.2717 20.0144L33.4679 8.10953C32.9004 4.96857 30.5675 2.66456 27.9172 2.66456H13.588C10.9329 2.66456 8.60002 4.96857 8.04206 8.13839L6.23348 20.0192C6.15171 20.5291 5.714 20.9091 5.19451 20.9091H3.24164Z" fill="#E6E3D9"/>
    </g>
    <path d="M7.62818 49.1969C7.05097 49.1969 6.57959 48.7255 6.57959 48.1483V44.5456C6.57959 43.9636 7.05097 43.4922 7.62818 43.4922C8.2102 43.4922 8.67677 43.9636 8.67677 44.5456V48.1483C8.67677 48.7255 8.2102 49.1969 7.62818 49.1969Z" fill="#E6E3D9"/>
    <path d="M33.8766 49.1969C33.2946 49.1969 32.828 48.7255 32.828 48.1483V44.5456C32.828 43.9636 33.2946 43.4922 33.8766 43.4922C34.4538 43.4922 34.9252 43.9636 34.9252 44.5456V48.1483C34.9252 48.7255 34.4538 49.1969 33.8766 49.1969Z" fill="#E6E3D9"/>
    <mask id="mask2_389_248" style="mask-type:luminance" maskUnits="userSpaceOnUse" x="0" y="46" width="60" height="4">
    <path d="M0.5 46.9893H59.5V49.452H0.5V46.9893Z" fill="white"/>
    </mask>
    <g mask="url(#mask2_389_248)">
    <path d="M58.3551 49.1973H1.71204C1.13003 49.1973 0.663452 48.7259 0.663452 48.1487C0.663452 47.5667 1.13003 47.1001 1.71204 47.1001H58.3551C58.9371 47.1001 59.4037 47.5667 59.4037 48.1487C59.4037 48.7259 58.9371 49.1973 58.3551 49.1973Z" fill="#E6E3D9"/>
    </g>
    <path d="M11.4186 36.7823C10.8366 36.7823 10.3701 36.311 10.3701 35.7337V22.7322C10.3701 21.7269 9.55235 20.9092 8.54224 20.9092C7.96504 20.9092 7.49365 20.4378 7.49365 19.8606C7.49365 19.2786 7.96504 18.812 8.54224 18.812C10.7068 18.812 12.4672 20.5725 12.4672 22.7322V35.7337C12.4672 36.311 11.9959 36.7823 11.4186 36.7823Z" fill="#E6E3D9"/>
    <path d="M30.0815 36.7823C29.5043 36.7823 29.0329 36.311 29.0329 35.7337V22.7322C29.0329 20.5677 30.7934 18.812 32.9579 18.812C33.5351 18.812 34.0065 19.2786 34.0065 19.8606C34.0065 20.4378 33.5351 20.9092 32.9579 20.9092C31.9478 20.9092 31.1301 21.7269 31.1301 22.7322V35.7337C31.1301 36.311 30.6635 36.7823 30.0815 36.7823Z" fill="#E6E3D9"/>
    <path d="M30.0286 26.5226C29.9035 26.5226 29.7688 26.4986 29.6438 26.4505C23.7419 24.1272 17.7582 24.1272 11.8562 26.4505C11.3175 26.6573 10.7066 26.3976 10.495 25.8589C10.2834 25.3153 10.5479 24.7093 11.0866 24.4976C17.4984 21.9772 24.0016 21.9723 30.4134 24.4976C30.9521 24.7093 31.2167 25.3153 31.005 25.8589C30.8415 26.2725 30.4471 26.5226 30.0286 26.5226Z" fill="#E6E3D9"/>
    </svg>
    