<svg width="59" height="60" viewBox="0 0 59 60" fill="none" xmlns="http://www.w3.org/2000/svg">
<path d="M51.4714 9.74151H49.4967V1.82022C49.4967 1.09182 48.8992 0.5 48.1765 0.5H11.2218C10.4934 0.5 9.90162 1.09182 9.90162 1.82022V9.74151H7.9213C3.56231 9.74151 0 13.3038 0 17.6571V58.5724C0 59.3008 0.591821 59.8927 1.32022 59.8927H58.0724C58.8008 59.8927 59.3927 59.3008 59.3927 58.5724V17.6571C59.3927 13.3038 55.8303 9.74151 51.4714 9.74151ZM51.4714 40.0951C50.7486 40.0951 50.1568 40.6869 50.1568 41.4153V50.6568H39.5951V46.6962H44.876C45.5987 46.6962 46.1962 46.0987 46.1962 45.376C46.1962 44.6476 45.5987 44.0557 44.876 44.0557H31.6738C30.9511 44.0557 30.3593 44.6476 30.3593 45.376C30.3593 46.0987 30.9511 46.6962 31.6738 46.6962H36.9547V50.6568H26.3986V41.4153C26.3986 40.6869 25.8011 40.0951 25.0784 40.0951C24.35 40.0951 23.7582 40.6869 23.7582 41.4153V50.6568H19.7976V25.5784H32.4022C31.1503 26.9612 30.3593 28.8107 30.3593 30.8593C30.3593 31.582 30.9511 32.1738 31.6738 32.1738H44.876C45.5987 32.1738 46.1962 31.582 46.1962 30.8593C46.1962 28.8107 45.4052 26.9612 44.1476 25.5784H56.7522V50.6568H52.7916V41.4153C52.7916 40.6869 52.1997 40.0951 51.4714 40.0951ZM2.64043 25.5784H17.1571V29.5391H2.64043V25.5784ZM43.3566 29.5391H33.1932C33.7907 27.2913 35.8336 25.5784 38.2749 25.5784C40.7161 25.5784 42.8274 27.2913 43.3566 29.5391ZM12.5364 3.14043H46.8563V9.74151H12.5364V3.14043ZM7.9213 12.3763H51.4714C54.3792 12.3763 56.7522 14.7549 56.7522 17.6571V22.938H2.64043V17.6571C2.64043 14.7549 5.01341 12.3763 7.9213 12.3763ZM2.64043 32.1738H17.1571V57.2522H2.64043V32.1738ZM19.7976 57.2522V53.2916H56.7522V57.2522H19.7976Z" fill="#E6E3D9"/>
</svg>
