<svg width="60" height="73" viewBox="0 0 60 73" fill="none" xmlns="http://www.w3.org/2000/svg">
    <path d="M24.9334 43.1278L41.2403 26.8055C41.594 26.4673 42.0168 26.2904 42.5089 26.2904C43.0009 26.2904 43.4238 26.4596 43.7775 26.7979C44.1311 27.1438 44.3079 27.5667 44.3079 28.0664C44.3079 28.5585 44.1311 28.9813 43.7851 29.335L25.9944 47.1411C25.6485 47.4947 25.2256 47.6716 24.7259 47.6716H24.7182C24.2261 47.6716 23.8033 47.5024 23.4573 47.1488C23.3804 47.0796 23.3189 47.0027 23.2574 46.9181L15.9304 38.2073C15.6383 37.8075 15.5306 37.3616 15.6075 36.8695C15.6844 36.3698 15.9228 35.9777 16.3302 35.6932C16.7377 35.4011 17.1836 35.2934 17.6757 35.378C18.1677 35.4549 18.5598 35.7009 18.8443 36.1084L24.9334 43.1278ZM59.3001 41.7823C59.3386 47.1334 56.2325 53.4455 50.5432 59.55C48.0906 62.1794 45.4074 64.5397 42.4935 66.6309L42.3628 66.7155C42.309 66.7462 42.2629 66.777 42.2167 66.8154L42.1014 66.9077C38.6263 69.4218 34.8667 71.39 30.815 72.8123L30.3076 72.9815L29.7924 72.82C28.5623 72.4279 27.3553 71.9666 26.1713 71.4515C26.0944 71.413 26.0252 71.3746 25.9483 71.3515L25.8407 71.3054C19.8053 68.4992 14.4697 64.6935 9.849 59.8883C7.42718 57.4203 5.35903 54.6833 3.63685 51.6849L3.57534 51.5619C3.54459 51.508 3.51384 51.4542 3.4754 51.4004L3.4062 51.2851C1.79935 48.4942 0.930572 45.4881 0.799869 42.2667L0.592285 16.534L0.715298 16.4648L29.7079 0.834473L29.8155 0.895979L59.0849 16.0573L59.3001 41.7823ZM55.7789 18.087L29.7386 4.60174L3.93669 18.5176L4.13659 42.2436C4.2596 44.8884 4.9823 47.3564 6.31238 49.6552C6.41233 49.8012 6.4969 49.9627 6.57378 50.1241C8.14988 52.8535 10.0412 55.3368 12.2477 57.5818C16.5532 62.0564 21.5275 65.6161 27.1554 68.2455C27.3014 68.2993 27.4475 68.3685 27.5936 68.4377C28.4777 68.8144 29.4157 69.1834 30.2768 69.4679C33.7904 68.1609 37.0733 66.4156 40.1178 64.2322C40.2716 64.1015 40.433 63.9861 40.6099 63.8785C43.3238 61.9257 45.8225 59.7268 48.106 57.2819C53.211 51.7925 56.0019 46.3031 55.9634 41.8054L55.7789 18.087Z" fill="#E6E3D9"/>
    </svg>
    