<svg width="42" height="31" viewBox="0 0 42 31" fill="none" xmlns="http://www.w3.org/2000/svg">
  <path d="M13.6242 13.5575C15.9938 15.0129 18.0469 16.9395 19.657 19.2176C20.1492 19.9137 20.5992 20.645 21 21.3973C21.4008 20.6379 21.8508 19.9137 22.343 19.2176C23.9531 16.9395 26.0063 15.0129 28.3758 13.5575C31.5187 11.6239 35.2102 10.5129 39.1406 10.5129H39.8367C40.6172 10.5129 41.25 11.1458 41.25 11.9262C41.25 22.3325 32.8195 30.7629 22.4133 30.7629H21H19.5867C9.18047 30.7629 0.75 22.3325 0.75 11.9262C0.75 11.1458 1.38281 10.5129 2.16328 10.5129H2.85938C6.78984 10.5129 10.4813 11.6239 13.6242 13.5575ZM21.9492 -0.343311C23.0531 0.844971 26.2453 4.70513 27.8836 11.2301C25.2117 12.7489 22.8633 14.802 21 17.2489C19.1367 14.802 16.7883 12.7559 14.1164 11.2301C15.7477 4.70513 18.9398 0.844971 20.0508 -0.343311C20.2969 -0.603467 20.6414 -0.737061 21 -0.737061C21.3586 -0.737061 21.7031 -0.603467 21.9492 -0.343311Z" fill="#F97316"/>
  </svg>
  