<svg width="22" height="26" viewBox="0 0 22 26" fill="none" xmlns="http://www.w3.org/2000/svg">
  <path d="M20.4286 0.0922852C19.6429 0.0922852 14.1429 1.66371 14.1429 8.73514V14.2351C14.1429 15.9686 15.5522 17.378 17.2857 17.378H18.8571V23.6637C18.8571 24.5329 19.5594 25.2351 20.4286 25.2351C21.2978 25.2351 22 24.5329 22 23.6637V17.378V11.878V1.66371C22 0.794517 21.2978 0.0922852 20.4286 0.0922852ZM3.14286 0.877999C3.14286 0.475321 2.8433 0.141392 2.44062 0.0971959C2.03795 0.0529994 1.67946 0.318178 1.59107 0.706124L0.103125 7.39943C0.034375 7.7088 0 8.02309 0 8.33737C0 10.5914 1.72366 12.4427 3.92857 12.6441V23.6637C3.92857 24.5329 4.6308 25.2351 5.5 25.2351C6.3692 25.2351 7.07143 24.5329 7.07143 23.6637V12.6441C9.27634 12.4427 11 10.5914 11 8.33737C11 8.02309 10.9656 7.7088 10.8969 7.39943L9.40893 0.706124C9.32054 0.313267 8.95223 0.0529994 8.55446 0.0971959C8.1567 0.141392 7.85714 0.475321 7.85714 0.877999V7.46818C7.85714 7.73336 7.64107 7.94943 7.37589 7.94943C7.12545 7.94943 6.9192 7.75791 6.89464 7.50746L6.2808 0.809249C6.24643 0.40166 5.90759 0.0922852 5.5 0.0922852C5.09241 0.0922852 4.75357 0.40166 4.7192 0.809249L4.11027 7.50746C4.08571 7.75791 3.87946 7.94943 3.62902 7.94943C3.36384 7.94943 3.14777 7.73336 3.14777 7.46818V0.877999H3.14286ZM5.51473 8.34229H5.5H5.48527L5.5 8.30791L5.51473 8.34229Z" fill="#F97316"/>
  </svg>
  