<svg width="34" height="31" viewBox="0 0 34 31" fill="none" xmlns="http://www.w3.org/2000/svg">
  <path d="M8.72917 4.50122C8.72917 2.02271 10.6943 0.0129395 13.1177 0.0129395C14.2807 0.0129395 15.3979 0.487549 16.2172 1.32544L16.75 1.87036L17.2828 1.32544C18.1021 0.487549 19.2193 0.0129395 20.3823 0.0129395C22.8057 0.0129395 24.7708 2.02271 24.7708 4.50122C24.7708 5.69067 24.3068 6.83325 23.4875 7.67114L17.5578 13.7297C17.1109 14.1868 16.3833 14.1868 15.9365 13.7297L10.0125 7.67114C9.19323 6.83325 8.72917 5.69067 8.72917 4.50122ZM32.8031 19.718C33.5536 20.761 33.3359 22.2258 32.3161 22.9934L25.063 28.4602C23.7224 29.468 22.1068 30.0129 20.4396 30.0129H11.25H2.08333C1.06927 30.0129 0.25 29.175 0.25 28.1379V24.3879C0.25 23.3508 1.06927 22.5129 2.08333 22.5129H4.19167L6.76406 20.4036C8.06458 19.3372 9.68021 18.7629 11.3474 18.7629H15.8333H16.75H20.4167C21.4307 18.7629 22.25 19.6008 22.25 20.6379C22.25 21.675 21.4307 22.5129 20.4167 22.5129H16.75H15.8333C15.3292 22.5129 14.9167 22.9348 14.9167 23.4504C14.9167 23.9661 15.3292 24.3879 15.8333 24.3879H22.7427L29.6005 19.22C30.6203 18.4524 32.0526 18.675 32.8031 19.718ZM11.3417 22.5129H11.2901C11.3073 22.5129 11.3245 22.5129 11.3417 22.5129Z" fill="#F97316"/>
  </svg>
  