<svg width="60" height="48" viewBox="0 0 60 48" fill="none" xmlns="http://www.w3.org/2000/svg">
    <mask id="mask0_389_441" style="mask-type:luminance" maskUnits="userSpaceOnUse" x="0" y="0" width="60" height="48">
    <path d="M0.5 0.520508H59.5V47.4797H0.5V0.520508Z" fill="white"/>
    </mask>
    <g mask="url(#mask0_389_441)">
    <path d="M29.9625 37.7465C28.6831 37.7465 27.5292 38.2545 26.6701 39.076L26.6136 39.1325C25.7607 39.9916 25.2277 41.1644 25.2277 42.4751C25.2277 43.7795 25.7607 44.9647 26.6136 45.8239C27.4728 46.6768 28.658 47.2099 29.9625 47.2099C31.2355 47.2099 32.3957 46.7019 33.2486 45.8741L33.305 45.8239C34.1579 44.9647 34.691 43.7857 34.691 42.4751C34.691 41.1769 34.1579 39.9916 33.305 39.1325C32.4459 38.2796 31.2606 37.7465 29.9625 37.7465ZM31.9693 44.4881L31.9254 44.532C31.4174 45.0212 30.7276 45.3222 29.9625 45.3222C29.1723 45.3222 28.4636 45.0024 27.9494 44.4881C27.4414 43.9802 27.1153 43.2652 27.1153 42.4813C27.1153 41.6911 27.4414 40.9825 27.9494 40.4682L27.9933 40.4243C28.5075 39.9352 29.1911 39.6342 29.9625 39.6342C30.7464 39.6342 31.4613 39.9603 31.9693 40.4682C32.4898 40.9888 32.8033 41.7037 32.8033 42.4813C32.8033 43.2652 32.4835 43.9802 31.9693 44.4881ZM49.8988 21.3597C47.3025 18.7634 44.192 16.6625 40.7365 15.2264C37.4127 13.853 33.7691 13.0817 29.9499 13.0817C26.137 13.0817 22.4934 13.853 19.1634 15.2264C15.7079 16.6625 12.5974 18.7634 10.001 21.3597L9.62477 21.7485C9.26731 22.1185 9.27358 22.6955 9.63105 23.0592L13.676 27.192C14.046 27.562 14.6418 27.5683 15.0118 27.2045L15.4194 26.7844C17.3196 24.8842 19.5898 23.3603 22.0983 22.3192C24.519 21.3158 27.1718 20.764 29.9437 20.764C32.7281 20.764 35.3808 21.3158 37.8078 22.3192C40.3163 23.354 42.5802 24.8842 44.4804 26.7844C44.6247 26.9035 44.7501 27.0478 44.8818 27.1794C45.2455 27.5495 45.835 27.562 46.2113 27.2045L50.2688 23.0592C50.6325 22.6955 50.6325 22.106 50.2688 21.736C50.2312 21.7046 49.8988 21.3597 49.8988 21.3597ZM45.5904 25.1915C43.5774 23.2474 41.188 21.6733 38.5541 20.5821C35.9014 19.4972 33.004 18.8826 29.9687 18.8826C26.9272 18.8826 24.0299 19.4846 21.3834 20.5821C18.7369 21.6733 16.3601 23.2474 14.3533 25.1915L11.6504 22.4196C14.0209 20.118 16.8179 18.2617 19.9034 16.9887C23.0076 15.7093 26.4067 14.9944 29.9813 14.9944C33.5559 14.9944 36.9549 15.6968 40.0592 16.9887C43.1447 18.2617 45.9479 20.118 48.3122 22.4196L45.5904 25.1915ZM59.0423 12.7493C59.0109 12.7305 58.7726 12.4984 58.7726 12.4859C55.0224 8.7294 50.5322 5.69411 45.534 3.63087C40.7365 1.64288 35.4686 0.54541 29.9499 0.54541C24.4375 0.54541 19.1759 1.64288 14.3658 3.63087C9.36765 5.69411 4.87743 8.7294 1.12095 12.4859L0.851283 12.7618C0.500093 13.1318 0.500093 13.7213 0.851283 14.0851L4.89625 18.2178C5.26625 18.5816 5.86202 18.5941 6.23202 18.2304L6.55186 17.9043C9.60596 14.8502 13.2496 12.3981 17.2945 10.7174C21.1952 9.10568 25.4722 8.20889 29.9499 8.22143C34.4339 8.22143 38.7109 9.10568 42.6116 10.7174C46.6566 12.3855 50.3002 14.8502 53.3543 17.9043C53.4671 18.0046 53.5675 18.1175 53.6678 18.2178C54.0316 18.5878 54.6336 18.5941 54.9973 18.2304L59.0548 14.0851C59.4186 13.7213 59.406 13.1193 59.0423 12.7493ZM54.3639 16.2173C51.2095 13.1632 47.4906 10.686 43.3579 8.97398C39.2251 7.26193 34.7161 6.32124 29.9687 6.32124C25.2277 6.32124 20.7061 7.26193 16.5859 8.97398C12.4531 10.686 8.72171 13.1632 5.57354 16.2173L2.8769 13.4391C6.3888 10.0276 10.5278 7.27447 15.1059 5.37428C19.6839 3.47409 24.7009 2.43306 29.9813 2.43306C35.2554 2.43306 40.2787 3.47409 44.8567 5.37428C49.4285 7.27447 53.5738 10.0276 57.0857 13.4391L54.3639 16.2173ZM40.7239 30.5471C39.3129 29.1486 37.6385 28.0135 35.7697 27.2359C33.9698 26.4959 32.0069 26.082 29.9499 26.082C27.893 26.082 25.93 26.4959 24.1302 27.2359C22.2614 28.0135 20.5869 29.1486 19.1822 30.5471C19.0191 30.7102 18.8623 30.8795 18.6993 31.0614C18.3606 31.4376 18.3732 32.002 18.7181 32.3595L22.7693 36.4923C23.1393 36.856 23.7414 36.8685 24.1051 36.4985L24.381 36.2038L24.6068 35.9655C25.3029 35.2694 26.137 34.705 27.0589 34.3224C27.9494 33.9587 28.9277 33.7455 29.9687 33.758C31.0035 33.758 31.9818 33.9587 32.8723 34.3224C33.7942 34.6987 34.622 35.2694 35.3244 35.9655L35.5439 36.2038L35.7571 36.4358C36.0895 36.8246 36.679 36.8811 37.0803 36.5487L37.1431 36.4923L41.188 32.3595C41.5329 31.9895 41.5455 31.4251 41.2131 31.0614L40.7239 30.5471ZM36.4783 34.4667C35.6505 33.6827 34.6596 33.0368 33.5684 32.579C32.4584 32.1149 31.2355 31.8578 29.9625 31.8578C28.6957 31.8578 27.4728 32.1149 26.3502 32.579C25.259 33.0243 24.2744 33.6827 23.4404 34.4667L20.7186 31.6948C21.9039 30.5471 23.3087 29.6252 24.8514 28.9793C26.4255 28.3271 28.1501 27.9696 29.9625 27.9696C31.7811 27.9696 33.5057 28.3396 35.0673 28.9793C36.6163 29.6252 38.0148 30.5471 39.2 31.6948L36.4783 34.4667Z" fill="#E6E3D9"/>
    </g>
    </svg>
    