<svg width="12" height="17" viewBox="0 0 12 17" fill="none" xmlns="http://www.w3.org/2000/svg">
<path d="M6.74062 16.1809C8.34375 14.1747 12 9.31218 12 6.58093C12 3.26843 9.3125 0.580933 6 0.580933C2.6875 0.580933 0 3.26843 0 6.58093C0 9.31218 3.65625 14.1747 5.25938 16.1809C5.64375 16.6591 6.35625 16.6591 6.74062 16.1809ZM6 4.58093C6.53043 4.58093 7.03914 4.79165 7.41421 5.16672C7.78929 5.54179 8 6.0505 8 6.58093C8 7.11137 7.78929 7.62007 7.41421 7.99515C7.03914 8.37022 6.53043 8.58093 6 8.58093C5.46957 8.58093 4.96086 8.37022 4.58579 7.99515C4.21071 7.62007 4 7.11137 4 6.58093C4 6.0505 4.21071 5.54179 4.58579 5.16672C4.96086 4.79165 5.46957 4.58093 6 4.58093Z" fill="#F97316"/>
</svg>
