<svg width="60" height="44" viewBox="0 0 60 44" fill="none" xmlns="http://www.w3.org/2000/svg">
    <path d="M52.8879 0.127197H7.0535C6.62165 0.127197 6.19564 0.173884 5.77546 0.255585C5.34945 0.343122 4.94094 0.465674 4.54411 0.634912C4.14727 0.798315 3.76794 1.00257 3.41196 1.24184C3.05014 1.4811 2.7175 1.74955 2.41404 2.05885C2.11058 2.36231 1.83629 2.68912 1.59702 3.05094C1.35775 3.40692 1.15934 3.78625 0.9901 4.18308C0.826696 4.57992 0.704144 4.98842 0.616608 5.41444C0.52907 5.83462 0.48822 6.26063 0.48822 6.69248V36.8052C0.48822 37.2371 0.52907 37.6631 0.616608 38.0833C0.704144 38.5093 0.826696 38.9178 0.9901 39.3146C1.15934 39.7115 1.35775 40.0908 1.59702 40.4468C1.83629 40.8086 2.11058 41.1354 2.41404 41.4447C2.7175 41.7482 3.05014 42.0166 3.41196 42.2559C3.76794 42.4951 4.14727 42.6994 4.54411 42.8686C4.94094 43.032 5.34945 43.1546 5.77546 43.2421C6.19564 43.3238 6.62165 43.3705 7.0535 43.3705H52.8879C53.3198 43.3705 53.7458 43.3238 54.1718 43.2421C54.592 43.1546 55.0005 43.032 55.3973 42.8686C55.8 42.6994 56.1735 42.4951 56.5353 42.2559C56.8913 42.0166 57.2239 41.7482 57.5274 41.4447C57.8309 41.1354 58.1051 40.8086 58.3444 40.4468C58.5837 40.0908 58.7821 39.7115 58.9513 39.3146C59.1147 38.9178 59.2431 38.5093 59.3248 38.0833C59.4124 37.6631 59.4532 37.2371 59.4532 36.8052V6.69248C59.4532 6.26063 59.4124 5.83462 59.3248 5.41444C59.2431 4.98842 59.1147 4.57992 58.9513 4.18308C58.7821 3.78625 58.5837 3.40692 58.3444 3.05094C58.1051 2.68912 57.8309 2.36231 57.5274 2.05885C57.2239 1.74955 56.8913 1.4811 56.5353 1.24184C56.1735 1.00257 55.8 0.798315 55.3973 0.634912C55.0005 0.465674 54.592 0.343122 54.1718 0.255585C53.7458 0.173884 53.3198 0.127197 52.8879 0.127197ZM4.41572 6.55242L21.4213 19.6246L4.41572 36.6652V6.69248C4.41572 6.69248 4.41572 6.59327 4.41572 6.55242ZM29.9707 21.2353L7.64292 4.06053H52.2985L29.9707 21.2353ZM24.5843 22.0465L28.7744 25.2678C29.1245 25.5421 29.5272 25.6764 29.9707 25.6764C30.4142 25.6764 30.8169 25.5421 31.1729 25.2678L35.3572 22.0465L52.7537 39.4372H7.18773L24.5843 22.0465ZM38.5027 19.6246L55.5257 6.55242C55.5257 6.55242 55.5257 6.55242 55.5257 6.69248V36.6652L38.5027 19.6246Z" fill="#E6E3D9"/>
    </svg>