<svg width="59" height="38" viewBox="0 0 59 38" fill="none" xmlns="http://www.w3.org/2000/svg">
    <path d="M55.6534 8.6722H54.2274V5.81535C54.2274 2.67041 51.6682 0.106445 48.5185 0.106445H10.4623C7.31738 0.106445 4.75822 2.67041 4.75822 5.81535V8.6722H3.32739C1.49324 8.6722 0 10.1654 0 11.9996V31.0277C0 32.8666 1.49324 34.3599 3.32739 34.3599H3.80273V37.2119C3.80273 37.7401 4.23006 38.1626 4.75822 38.1626H7.49023C7.91756 38.1626 8.29207 37.8793 8.40731 37.4712L9.28117 34.3599H49.6996L50.5783 37.4712C50.6935 37.8793 51.068 38.1626 51.4954 38.1626H54.2274C54.7555 38.1626 55.1781 37.7401 55.1781 37.2119V34.3599H55.6534C57.4923 34.3599 58.9856 32.8666 58.9856 31.0277V11.9996C58.9856 10.1654 57.4923 8.6722 55.6534 8.6722ZM6.65959 5.81535C6.65959 3.71712 8.36409 2.01261 10.4623 2.01261H48.5185C50.6167 2.01261 52.326 3.71712 52.326 5.81535V8.6722H50.9C49.061 8.6722 47.5678 10.1654 47.5678 11.9996V16.7866C46.5595 15.884 45.2247 15.3318 43.7651 15.3318H15.2205C13.7609 15.3318 12.4261 15.884 11.4178 16.7866V11.9996C11.4178 10.1654 9.92456 8.6722 8.08561 8.6722H6.65959V5.81535ZM47.5678 21.0407V22.9421H11.4178V21.0407C11.4178 18.9425 13.1223 17.2332 15.2205 17.2332H43.7651C45.8633 17.2332 47.5678 18.9425 47.5678 21.0407ZM6.77002 36.2612H5.7089V34.3599H7.30778L6.77002 36.2612ZM53.2767 36.2612H52.2156L51.6778 34.3599H53.2767V36.2612ZM57.0842 31.0277C57.0842 31.8151 56.4408 32.4537 55.6534 32.4537H3.32739C2.53996 32.4537 1.90137 31.8151 1.90137 31.0277V11.9996C1.90137 11.2122 2.53996 10.5736 3.32739 10.5736H8.08561C8.87305 10.5736 9.51164 11.2122 9.51164 11.9996V23.8927C9.51164 24.4209 9.93896 24.8434 10.4623 24.8434H48.5185C49.0466 24.8434 49.4692 24.4209 49.4692 23.8927V11.9996C49.4692 11.2122 50.1125 10.5736 50.9 10.5736H55.6534C56.4408 10.5736 57.0842 11.2122 57.0842 11.9996V31.0277Z" fill="#E6E3D9"/>
    </svg>

