<svg width="59" height="68" viewBox="0 0 59 68" fill="none" xmlns="http://www.w3.org/2000/svg">
<mask id="mask0_389_738" style="mask-type:luminance" maskUnits="userSpaceOnUse" x="7" y="0" width="46" height="23">
<path d="M7.53589 0.0961914H52.0453V22.59H7.53589V0.0961914Z" fill="white"/>
</mask>
<g mask="url(#mask0_389_738)">
<path d="M31.5184 3.4702C31.225 3.44303 31.0022 3.20397 31.0022 2.916C31.0022 2.6063 31.2521 2.36181 31.5618 2.36181H33.0343C33.6645 2.36181 34.1644 1.85108 34.1644 1.23168C34.1644 0.606857 33.6645 0.101562 33.0343 0.101562H25.8026C25.1832 0.101562 24.6724 0.606857 24.6724 1.23168C24.6724 1.85108 25.1832 2.36181 25.8026 2.36181H27.275C27.5901 2.36181 27.84 2.61174 27.84 2.92144C27.84 3.22027 27.6173 3.45933 27.3293 3.4865C17.5168 4.43732 9.62769 12.0167 8.18787 21.6771H50.8011C49.3613 11.9678 41.3961 4.36125 31.5184 3.4702Z" fill="#E6E3D9"/>
</g>
<mask id="mask1_389_738" style="mask-type:luminance" maskUnits="userSpaceOnUse" x="0" y="22" width="59" height="37">
<path d="M0 22.5898H59V58.7538H0V22.5898Z" fill="white"/>
</mask>
<g mask="url(#mask1_389_738)">
<path d="M57.3972 23.2583H1.59195C0.722624 23.2583 0.0108643 23.9646 0.0108643 24.8394C0.0108643 25.7141 0.722624 26.4205 1.59195 26.4205H10.9589C10.6003 26.9312 10.4102 27.5397 10.4373 28.1754L10.3015 30.3324C10.2037 31.756 9.90487 33.1469 9.39957 34.4726C8.44875 36.9773 8.09559 39.7048 8.38355 42.3617L9.08444 50.0389L8.50308 50.9354L11.2415 52.4513L11.9967 51.2777C12.1868 50.9843 12.2738 50.6366 12.2412 50.2889L11.4914 42.052C11.2578 39.8678 11.5403 37.6293 12.3172 35.5864C12.9312 33.9673 13.3007 32.2667 13.4148 30.5335L13.556 28.3819C15.4685 28.621 15.7022 29.8217 15.838 32.8426L15.8597 33.299L15.8652 37.7271V37.7923C15.9086 38.7432 16.1803 39.6777 16.653 40.4981C18.1472 43.0952 22.2004 43.1658 24.6019 42.3834C28.1498 41.2316 34.4416 39.0202 36.6746 37.2001L46.7642 28.9741C48.4214 27.969 49.3233 28.1754 49.921 28.5286L48.943 29.4903L36.5008 42.1607C35.6804 42.9648 34.8002 43.7037 33.8874 44.3666L20.076 54.0324C20.0597 54.0433 20.0488 54.0541 20.0216 54.0813C19.9782 54.1139 19.9347 54.1519 19.8967 54.19C19.8586 54.2226 19.826 54.2606 19.7934 54.2932C19.7608 54.3367 19.7282 54.3747 19.7011 54.4182C19.6685 54.4616 19.6413 54.5051 19.6033 54.5703C19.5924 54.5866 19.5815 54.6029 19.5707 54.6192L18.6253 56.5317L21.3582 58.0476L22.195 56.3633L35.7021 46.9094C36.7507 46.1487 37.7613 45.2957 38.7067 44.372L51.1489 31.7016L52.855 30.0336C53.3222 29.5772 53.5667 28.9415 53.5232 28.2895C53.4798 27.6321 53.1592 27.0344 52.6376 26.6432L52.3442 26.4205H57.3972C58.2719 26.4205 58.9783 25.7141 58.9783 24.8394C58.9783 23.9701 58.2719 23.2583 57.3972 23.2583ZM37.1202 32.81L38.2612 31.0605C38.5328 30.6421 38.9566 30.365 39.4456 30.2781C39.5434 30.2618 39.6412 30.2509 39.739 30.2509C39.8911 30.2509 40.0378 30.2727 40.1845 30.3107L37.1202 32.81ZM44.8789 26.4857L42.798 28.1809L42.6947 28.1048C41.6189 27.2952 40.2334 26.9692 38.9023 27.2029C37.5711 27.4365 36.3867 28.2189 35.6478 29.349L30.8393 36.7111C30.823 36.7383 30.8067 36.7709 30.7904 36.8035C28.8344 37.6239 26.3623 38.5258 23.6348 39.4169C22.1515 39.9004 19.8369 39.7755 19.3588 38.9442C19.136 38.553 19.011 38.1346 18.9893 37.6891L18.9839 33.261L18.9567 32.7068C18.8752 30.8214 18.7502 28.0124 16.8106 26.4205H44.9658C44.9387 26.4422 44.9061 26.4639 44.8789 26.4857Z" fill="#E6E3D9"/>
</g>
<mask id="mask2_389_738" style="mask-type:luminance" maskUnits="userSpaceOnUse" x="0" y="50" width="26" height="18">
<path d="M0 50.4087H25.6179V67.9039H0V50.4087Z" fill="white"/>
</mask>
<g mask="url(#mask2_389_738)">
<path d="M23.5858 60.6776L5.47672 50.6586C5.11269 50.4576 4.69433 50.4087 4.29227 50.5228C3.89564 50.6369 3.55334 50.9085 3.35774 51.2671L0.396606 56.6189L3.12955 58.1348L5.33546 54.1468L20.7116 62.6499L18.5057 66.6379L21.2387 68.1483L24.1998 62.7966C24.6127 62.0413 24.3411 61.0905 23.5858 60.6776Z" fill="#E6E3D9"/>
</g>
</svg>
