<svg width="29" height="30" viewBox="0 0 29 30" fill="none" xmlns="http://www.w3.org/2000/svg">
  <path d="M23 16.3254C20.1819 16.3254 17.735 17.9566 16.5538 20.3355L3.47565 7.1666L3.5094 7.13262L6.89003 3.72852C11.8119 -1.22754 19.7882 -1.22754 24.71 3.72852C28.4844 7.5291 29.3619 13.1479 27.3425 17.7924C26.1388 16.8691 24.6313 16.3254 23 16.3254ZM2.37315 8.6166L15.9182 22.2557C15.8394 22.6805 15.8 23.1223 15.8 23.5754C15.8 24.8895 16.1488 26.1186 16.7507 27.1834C16.5819 27.1947 16.4075 27.2004 16.2332 27.2004H16.0813C14.1744 27.2004 12.3407 26.4357 10.9907 25.0764L10.4394 24.5213C9.70253 23.7793 8.49315 23.8189 7.8069 24.6176L4.56128 28.3898C4.23503 28.7693 3.76253 28.9959 3.26753 29.0129C2.77253 29.0299 2.28315 28.8373 1.92878 28.4805L0.128778 26.668C-0.225597 26.3111 -0.416847 25.824 -0.399972 25.3199C-0.383097 24.8158 -0.158097 24.3457 0.218778 24.0172L3.96503 20.749C4.75253 20.058 4.79753 18.8402 4.06065 18.0982L3.5094 17.5432C2.1594 16.1838 1.40003 14.3373 1.40003 12.4172V12.2643C1.40003 10.9729 1.74315 9.72109 2.37315 8.62227V8.6166ZM23 18.1379C24.4322 18.1379 25.8057 18.7108 26.8184 19.7305C27.8311 20.7502 28.4 22.1333 28.4 23.5754C28.4 25.0175 27.8311 26.4006 26.8184 27.4203C25.8057 28.44 24.4322 29.0129 23 29.0129C21.5679 29.0129 20.1943 28.44 19.1817 27.4203C18.169 26.4006 17.6 25.0175 17.6 23.5754C17.6 22.1333 18.169 20.7502 19.1817 19.7305C20.1943 18.7108 21.5679 18.1379 23 18.1379Z" fill="#F97316"/>
  </svg>
  