<svg width="32" height="23" viewBox="0 0 32 23" fill="none" xmlns="http://www.w3.org/2000/svg">
  <path d="M4.8 1.58437C4.8 0.715172 5.515 0.0129395 6.4 0.0129395H8C8.885 0.0129395 9.6 0.715172 9.6 1.58437V9.44151V12.5844V20.4415C9.6 21.3107 8.885 22.0129 8 22.0129H6.4C5.515 22.0129 4.8 21.3107 4.8 20.4415V17.2987H3.2C2.315 17.2987 1.6 16.5964 1.6 15.7272V12.5844C0.715 12.5844 0 11.8821 0 11.0129C0 10.1437 0.715 9.44151 1.6 9.44151V6.29865C1.6 5.42946 2.315 4.72723 3.2 4.72723H4.8V1.58437ZM27.2 1.58437V4.72723H28.8C29.685 4.72723 30.4 5.42946 30.4 6.29865V9.44151C31.285 9.44151 32 10.1437 32 11.0129C32 11.8821 31.285 12.5844 30.4 12.5844V15.7272C30.4 16.5964 29.685 17.2987 28.8 17.2987H27.2V20.4415C27.2 21.3107 26.485 22.0129 25.6 22.0129H24C23.115 22.0129 22.4 21.3107 22.4 20.4415V12.5844V9.44151V1.58437C22.4 0.715172 23.115 0.0129395 24 0.0129395H25.6C26.485 0.0129395 27.2 0.715172 27.2 1.58437ZM20.8 9.44151V12.5844H11.2V9.44151H20.8Z" fill="#F97316"/>
  </svg>
  