<svg width="59" height="54" viewBox="0 0 59 54" fill="none" xmlns="http://www.w3.org/2000/svg">
  <mask id="mask0_32_862" style="mask-type:luminance" maskUnits="userSpaceOnUse" x="12" y="0" width="13" height="12">
  <path d="M12.0261 0H24.0261V11.6198H12.0261V0Z" fill="white"/>
  </mask>
  <g mask="url(#mask0_32_862)">
  <path d="M23.2031 5.57294C23.2031 5.94273 23.1719 6.3021 23.099 6.66148C23.026 7.02085 22.9219 7.36981 22.7812 7.70835C22.6406 8.0469 22.4687 8.36981 22.2656 8.6719C22.0625 8.97919 21.8281 9.26044 21.5729 9.52085C21.3125 9.77606 21.0312 10.0104 20.724 10.2136C20.4219 10.4167 20.099 10.5886 19.7604 10.7292C19.4219 10.8698 19.0729 10.974 18.7135 11.0469C18.3542 11.1146 17.9948 11.1511 17.625 11.1511C17.2604 11.1511 16.8958 11.1146 16.5365 11.0469C16.1771 10.974 15.8281 10.8698 15.4896 10.7292C15.151 10.5886 14.8333 10.4167 14.526 10.2136C14.224 10.0104 13.9427 9.77606 13.6823 9.52085C13.4219 9.26044 13.1927 8.97919 12.9896 8.6719C12.7865 8.36981 12.6146 8.0469 12.474 7.70835C12.3333 7.36981 12.224 7.02085 12.1562 6.66148C12.0833 6.3021 12.0469 5.94273 12.0469 5.57294C12.0469 5.20835 12.0833 4.84377 12.1562 4.4844C12.224 4.12502 12.3333 3.77606 12.474 3.43752C12.6146 3.09898 12.7865 2.78127 12.9896 2.47398C13.1927 2.17189 13.4219 1.89065 13.6823 1.63023C13.9427 1.36981 14.224 1.14065 14.526 0.93752C14.8333 0.734396 15.151 0.562521 15.4896 0.421895C15.8281 0.281271 16.1771 0.171895 16.5365 0.104187C16.8958 0.031271 17.2604 -0.00518799 17.625 -0.00518799C17.9948 -0.00518799 18.3542 0.031271 18.7135 0.104187C19.0729 0.171895 19.4219 0.281271 19.7604 0.421895C20.099 0.562521 20.4219 0.734396 20.724 0.93752C21.0312 1.14065 21.3125 1.36981 21.5729 1.63023C21.8281 1.89065 22.0625 2.17189 22.2656 2.47398C22.4687 2.78127 22.6406 3.09898 22.7812 3.43752C22.9219 3.77606 23.026 4.12502 23.099 4.4844C23.1719 4.84377 23.2031 5.20835 23.2031 5.57294Z" fill="#E6E3D9"/>
  </g>
  <mask id="mask1_32_862" style="mask-type:luminance" maskUnits="userSpaceOnUse" x="36" y="0" width="14" height="12">
  <path d="M36.0259 0H49.3592V11.6198H36.0259V0Z" fill="white"/>
  </mask>
  <g mask="url(#mask1_32_862)">
  <path d="M48.125 5.57294C48.125 5.94273 48.0885 6.3021 48.0156 6.66148C47.9479 7.02085 47.8385 7.36981 47.6979 7.70835C47.5625 8.0469 47.3906 8.36981 47.1823 8.6719C46.9792 8.97919 46.75 9.26044 46.4896 9.52085C46.2344 9.77606 45.9479 10.0104 45.6458 10.2136C45.3385 10.4167 45.0208 10.5886 44.6823 10.7292C44.3437 10.8698 43.9948 10.974 43.6354 11.0469C43.276 11.1146 42.9115 11.1511 42.5469 11.1511C42.1823 11.1511 41.8177 11.1146 41.4583 11.0469C41.099 10.974 40.75 10.8698 40.4115 10.7292C40.0729 10.5886 39.75 10.4167 39.4479 10.2136C39.1406 10.0104 38.8594 9.77606 38.599 9.52085C38.3437 9.26044 38.1094 8.97919 37.9062 8.6719C37.7031 8.36981 37.5312 8.0469 37.3906 7.70835C37.25 7.36981 37.1458 7.02085 37.0729 6.66148C37.0052 6.3021 36.9688 5.94273 36.9688 5.57294C36.9688 5.20835 37.0052 4.84377 37.0729 4.4844C37.1458 4.12502 37.25 3.77606 37.3906 3.43752C37.5312 3.09898 37.7031 2.78127 37.9062 2.47398C38.1094 2.17189 38.3437 1.89065 38.599 1.63023C38.8594 1.36981 39.1406 1.14065 39.4479 0.93752C39.75 0.734396 40.0729 0.562521 40.4115 0.421895C40.75 0.281271 41.099 0.171895 41.4583 0.104187C41.8177 0.031271 42.1823 -0.00518799 42.5469 -0.00518799C42.9115 -0.00518799 43.276 0.031271 43.6354 0.104187C43.9948 0.171895 44.3437 0.281271 44.6823 0.421895C45.0208 0.562521 45.3385 0.734396 45.6458 0.93752C45.9479 1.14065 46.2344 1.36981 46.4896 1.63023C46.75 1.89065 46.9792 2.17189 47.1823 2.47398C47.3906 2.78127 47.5625 3.09898 47.6979 3.43752C47.8385 3.77606 47.9479 4.12502 48.0156 4.4844C48.0885 4.84377 48.125 5.20835 48.125 5.57294Z" fill="#E6E3D9"/>
  </g>
  <mask id="mask2_32_862" style="mask-type:luminance" maskUnits="userSpaceOnUse" x="0" y="12" width="59" height="42">
  <path d="M0 12.9531H59V54H0V12.9531Z" fill="white"/>
  </mask>
  <g mask="url(#mask2_32_862)">
  <path d="M58.1666 22.9166H51.1926V16.4739C51.1926 14.9739 49.9791 13.7552 48.4739 13.7552H36.4322C34.927 13.7552 33.7135 14.9739 33.7135 16.4739V22.9166H26.276V16.4739C26.276 14.9739 25.0572 13.7552 23.5572 13.7552H11.5103C10.0103 13.7552 8.79159 14.9739 8.79159 16.4739V22.9166H1.26034C0.567627 22.9166 0.00512695 23.4791 0.00512695 24.1719V53.5521H2.51554V25.4271H8.79159V30.75C8.79159 32.2552 10.0103 33.4687 11.5103 33.4687H12.0468V50.8229C12.0468 52.3333 13.2708 53.5521 14.776 53.5521H20.4739C21.9843 53.5521 23.203 52.3333 23.203 50.8229V33.4687H23.5572C25.0572 33.4687 26.276 32.2552 26.276 30.75V25.4271H56.9114V53.5521H59.4218V24.1719C59.4218 23.4791 58.8593 22.9166 58.1666 22.9166Z" fill="#E6E3D9"/>
  </g>
  </svg>
  