<svg width="59" height="66" viewBox="0 0 59 66" fill="none" xmlns="http://www.w3.org/2000/svg">
    <path d="M3.36862 32.3737H14.4784C14.4311 31.6645 14.5789 30.9613 14.8802 30.3586H4.37323V9.24408H22.5271C22.5744 8.54085 22.728 7.8849 22.9762 7.23486H3.36862C2.81904 7.23486 2.36401 7.68398 2.36401 8.23947V31.3632C2.36401 31.9187 2.81904 32.3737 3.36862 32.3737Z" fill="#E6E3D9"/>
    <path d="M54.6506 9.24408V30.3586H44.0904C44.3918 30.9613 44.5454 31.6645 44.4923 32.3737H55.6552C56.2107 32.3737 56.6598 31.9187 56.6598 31.3632V8.23947C56.6598 7.68398 56.2107 7.23486 55.6552 7.23486H36.1008C36.349 7.8849 36.5027 8.54085 36.5499 9.24408H54.6506Z" fill="#E6E3D9"/>
    <mask id="mask0_389_419" style="mask-type:luminance" maskUnits="userSpaceOnUse" x="0" y="28" width="59" height="38">
    <path d="M0 28.5088H59V65.3365H0V28.5088Z" fill="white"/>
    </mask>
    <g mask="url(#mask0_389_419)">
    <path d="M57.9187 45.7941L53.8471 42.5262C53.2916 42.1243 52.5883 41.9766 51.9856 42.1775C51.3296 42.3784 50.8273 42.8807 50.6796 43.5308L48.5167 51.3726H45.5029L44.7938 49.8657H46.2061C47.1103 49.8657 47.914 49.263 48.1681 48.3588L50.325 39.8137C50.5259 39.0573 50.2777 38.3009 49.675 37.7986L46.1057 34.7316C45.5502 34.2825 44.847 34.1288 44.191 34.3298C43.541 34.5307 43.0387 35.0862 42.8377 35.7894L41.579 41.5688L41.124 41.6693L40.1726 39.5124C40.6217 39.2582 40.9763 38.7559 41.124 38.2005L42.4359 32.4742C42.5836 31.8182 42.3827 31.1623 41.9809 30.66L40.5744 29.2535C40.0721 28.698 39.3157 28.4499 38.5652 28.6508C37.8561 28.8517 37.3065 29.4072 37.1056 30.1577L36.7037 31.966L36.5028 31.4637C36.2014 30.8609 35.6459 30.4591 35.0432 30.3586V30.3113H23.8802V30.3586C23.2774 30.5123 22.7751 30.9141 22.4738 31.4637L22.2256 32.0723L21.7705 30.1104C21.6169 29.354 21.0673 28.8044 20.3109 28.5976C19.6077 28.3967 18.804 28.6508 18.3017 29.2063L16.9425 30.66C16.4934 31.1623 16.3397 31.8182 16.4934 32.4742L17.7994 38.2005C17.9471 38.8091 18.3017 39.2582 18.804 39.5124L17.8467 41.6693L17.2971 41.5216L15.9911 35.7894C15.8374 35.0862 15.3351 34.5839 14.6319 34.3829C13.976 34.182 13.2255 34.3298 12.7232 34.7848L9.15385 37.8518C8.59836 38.3541 8.34426 39.1105 8.4979 39.861L10.6608 48.412C10.8617 49.3161 11.6654 49.9189 12.6227 49.9189H14.1296L13.4264 51.4258H10.3062L8.14333 43.584C7.94241 42.928 7.49329 42.4257 6.83734 42.2248C6.18731 42.0239 5.47817 42.1243 4.97587 42.5794L0.904252 45.8473C0.301488 46.3496 0.000105783 47.1533 0.201026 47.9038L3.1203 59.0195C3.36849 59.9236 4.17218 60.5264 5.07633 60.5264H9.40205L7.9956 63.6407C7.74149 64.143 7.9956 64.7516 8.4979 64.9526C9.00021 65.2008 9.60297 64.9526 9.80389 64.4443L24.3352 32.3737H34.6886L49.22 64.4975C49.3736 64.8521 49.7754 65.1003 50.1241 65.1003C50.2777 65.1003 50.4255 65.053 50.5259 64.9998C51.0282 64.7516 51.2824 64.1961 51.0282 63.6938L49.6218 60.5737H53.7466C54.6507 60.5737 55.4544 59.9709 55.7085 59.0667L58.6219 47.957C58.8228 47.1001 58.5746 46.2964 57.9187 45.7941ZM18.5026 32.0723L19.8618 30.6127L20.565 33.727C20.6655 34.0816 20.8132 34.4302 21.1146 34.6843L19.8086 37.5977L18.5026 32.0723ZM12.67 47.9038L10.5071 39.3587L14.0764 36.2917L15.3824 42.0239C15.5892 42.7271 16.1388 43.2826 16.8421 43.4835L17.043 43.5308L15.081 47.9038H12.67ZM5.17679 58.464L2.26343 47.3542L6.33504 44.0863L8.4979 51.9281C8.7461 52.785 9.55569 53.3878 10.4598 53.3878H12.6227L10.3594 58.4167H5.17679V58.464ZM42.0813 43.5308C42.7846 43.3299 43.34 42.7803 43.541 42.0771L44.847 36.3449L48.4163 39.4119L46.2534 47.957H43.9428L41.9809 43.584L42.0813 43.5308ZM38.4116 33.727L39.1148 30.6127L40.474 32.0723L39.2152 37.45L37.9093 34.5839C38.1575 34.3829 38.3111 34.0816 38.4116 33.727ZM53.7466 58.464H48.7177L46.4543 53.435H48.5167C49.4209 53.435 50.2246 52.8323 50.4787 51.9813L52.6415 44.1335L56.7131 47.4015L53.7466 58.464Z" fill="#E6E3D9"/>
    </g>
    <mask id="mask1_389_419" style="mask-type:luminance" maskUnits="userSpaceOnUse" x="23" y="0" width="13" height="12">
    <path d="M23.4015 0.663086H35.5041V11.8674H23.4015V0.663086Z" fill="white"/>
    </mask>
    <g mask="url(#mask1_389_419)">
    <path d="M25.4934 10.7507H33.5362C34.0858 10.7507 34.5408 10.3016 34.5408 9.74611C34.5408 7.33505 32.833 5.27265 30.5165 4.81762V1.70334C30.5165 1.14785 30.0673 0.69873 29.5119 0.69873C28.9623 0.69873 28.5073 1.14785 28.5073 1.70334V4.81762C26.1967 5.27265 24.4829 7.33505 24.4829 9.74611C24.4829 10.3016 24.9379 10.7507 25.4934 10.7507ZM29.5119 6.73228C30.8178 6.73228 31.9288 7.58325 32.3779 8.7415H26.6458C27.1008 7.58325 28.2059 6.73228 29.5119 6.73228Z" fill="#E6E3D9"/>
    </g>
    <path d="M28.5072 12.7659V14.7751C28.5072 15.3247 28.9622 15.7797 29.5118 15.7797C30.0673 15.7797 30.5164 15.3247 30.5164 14.7751V12.7659C30.5164 12.2104 30.0673 11.7554 29.5118 11.7554C28.9622 11.7554 28.5072 12.2104 28.5072 12.7659Z" fill="#E6E3D9"/>
    <path d="M24.282 14.9758C24.5361 14.9758 24.7843 14.8753 24.9852 14.6744L26.3975 13.2679C26.7994 12.8661 26.7994 12.2574 26.3975 11.8556C25.9957 11.4537 25.3929 11.4537 24.9852 11.8556L23.5787 13.2679C23.1769 13.6698 23.1769 14.2725 23.5787 14.6744C23.7796 14.8753 24.0338 14.9758 24.282 14.9758Z" fill="#E6E3D9"/>
    <path d="M32.6321 11.8556C32.2302 12.2574 32.2302 12.8661 32.6321 13.2679L34.0385 14.6744C34.2394 14.8753 34.4876 14.9758 34.7417 14.9758C34.9899 14.9758 35.244 14.8753 35.445 14.6744C35.8468 14.2725 35.8468 13.6698 35.445 13.2679L34.0385 11.8556C33.6367 11.4537 33.0339 11.4537 32.6321 11.8556Z" fill="#E6E3D9"/>
    </svg>
    