<svg width="60" height="60" viewBox="0 0 60 60" fill="none" xmlns="http://www.w3.org/2000/svg">
    <path d="M36.4985 42.7284L29.1352 44.8973C29.1297 44.8919 29.1297 44.8809 29.1242 44.8754C28.6685 44.0847 27.9327 43.5246 27.0596 43.2885L21.7279 41.8664C17.7964 39.1319 15.5726 39.8786 12.4043 41.4326C10.768 42.2342 9.10979 43.0194 7.42407 43.8156L7.38563 43.7278C6.9244 42.6845 5.69992 42.2068 4.65115 42.6625L1.77391 43.9254C1.26874 44.1506 0.873396 44.5569 0.675723 45.0731C0.472559 45.5837 0.489032 46.1493 0.71416 46.6599L5.85916 58.3556C6.1996 59.1298 6.96283 59.5966 7.75902 59.5966C8.03356 59.5966 8.31909 59.5362 8.58815 59.4208L11.4654 58.1579C11.976 57.9328 12.3659 57.5265 12.5636 57.0103C12.7667 56.4997 12.7558 55.9341 12.5306 55.4235L12.1188 54.4955L14.4799 53.3424C15.1114 53.0349 15.7483 52.98 16.4237 53.1777L22.4582 54.9238C22.9304 55.0611 23.4082 55.116 23.8968 55.116C25.5441 55.116 27.2518 54.4516 28.6904 53.8915C28.8112 53.8421 28.932 53.7981 29.0528 53.7487L40.3751 49.3779C42.3244 48.6257 43.5269 46.2426 42.8955 44.3867C42.6374 43.6289 41.4184 41.2788 36.4985 42.7284ZM11.0096 56.4063C10.9712 56.5052 10.8943 56.5875 10.7955 56.6315L7.91825 57.8889C7.71509 57.9822 7.47349 57.8889 7.38563 57.6857L2.24064 45.9846C2.19671 45.8857 2.19122 45.7759 2.22966 45.6771C2.26809 45.5782 2.34496 45.5013 2.44929 45.4574L5.32654 44.1945C5.37596 44.167 5.43086 44.1561 5.48577 44.1561C5.63952 44.1561 5.78778 44.2494 5.85367 44.3977L10.9987 56.0988C11.0426 56.1977 11.0481 56.3075 11.0096 56.4063ZM39.7766 47.8185L28.4543 52.1948C28.3335 52.2387 28.2072 52.2881 28.0809 52.3376C26.4556 52.969 24.435 53.7597 22.925 53.3204L16.8904 51.5743C15.8142 51.2613 14.7545 51.3547 13.7496 51.8434L11.4489 52.9635L8.09396 45.3476C9.80164 44.5404 11.4819 43.7442 13.1401 42.9316C16.0119 41.5204 17.5438 40.9494 20.8878 43.316C20.9702 43.3764 21.058 43.4148 21.1569 43.4422L26.6258 44.9028C27.0706 45.0236 27.444 45.3092 27.6801 45.71C27.9107 46.1163 27.9711 46.5831 27.8558 47.0278C27.735 47.4726 27.4495 47.8405 27.0486 48.0766C26.6423 48.3072 26.1756 48.3731 25.7308 48.2523L18.4608 46.3085C18.0161 46.1932 17.5548 46.4568 17.4395 46.9015C17.3187 47.3463 17.5823 47.802 18.0271 47.9228L25.3025 49.8666C26.1756 50.0973 27.0926 49.9765 27.8833 49.5207C28.6685 49.065 29.234 48.3292 29.4701 47.4561C29.5525 47.1431 29.5909 46.8192 29.5854 46.5062L36.9707 44.3318C39.3264 43.6399 40.9517 43.8596 41.3141 44.9193C41.627 45.8363 40.9791 47.3573 39.7766 47.8185ZM29.9918 24.213C26.7247 24.213 24.0726 26.8706 24.0726 30.1377C24.0726 33.3993 26.7247 36.057 29.9918 36.057C33.2534 36.057 35.911 33.3993 35.911 30.1377C35.911 26.8706 33.2534 24.213 29.9918 24.213ZM29.9918 34.3877C27.6472 34.3877 25.7418 32.4824 25.7418 30.1377C25.7418 27.7931 27.6472 25.8878 29.9918 25.8878C32.3364 25.8878 34.2418 27.7931 34.2418 30.1377C34.2418 32.4824 32.3364 34.3877 29.9918 34.3877ZM39.8809 32.724C40.7265 32.724 41.4129 32.0376 41.4129 31.192V29.078C41.4129 28.2324 40.7265 27.546 39.8809 27.546C39.2495 27.546 38.7333 27.2001 38.4917 26.618C38.2501 26.0305 38.3709 25.421 38.8157 24.9763C39.1012 24.6852 39.2605 24.3009 39.2605 23.8946C39.2605 23.4827 39.1012 23.0984 38.8157 22.8073L37.3167 21.3138C36.7182 20.7153 35.7518 20.7153 35.1532 21.3138C34.7085 21.7586 34.0935 21.8794 33.5115 21.6378C32.9294 21.3962 32.578 20.8745 32.578 20.2486C32.578 19.403 31.8916 18.7166 31.0515 18.7166H28.932C28.0864 18.7166 27.4001 19.403 27.4001 20.2486C27.4001 20.8745 27.0541 21.3962 26.4721 21.6378C25.8901 21.8794 25.2751 21.7586 24.8303 21.3138C24.2318 20.7153 23.2599 20.7153 22.6669 21.3138L21.1679 22.8073C20.8768 23.0984 20.7176 23.4827 20.7176 23.8891C20.7176 24.3009 20.8768 24.6852 21.1679 24.9763C21.6126 25.421 21.7334 26.0305 21.4918 26.618C21.2502 27.2001 20.7286 27.546 20.1026 27.546C19.257 27.546 18.5707 28.2324 18.5707 29.078V31.192C18.5707 32.0376 19.257 32.724 20.1026 32.724C20.7286 32.724 21.2502 33.0754 21.4918 33.6574C21.7334 34.2395 21.6126 34.8544 21.1679 35.2992C20.8768 35.5902 20.7176 35.9746 20.7176 36.3809C20.7176 36.7872 20.8768 37.1716 21.1679 37.4626L22.6669 38.9617C22.9524 39.2472 23.3368 39.4064 23.7486 39.4064C24.1549 39.4064 24.5393 39.2472 24.8303 38.9617C25.2751 38.5114 25.8901 38.3906 26.4721 38.6322C27.0541 38.8738 27.4001 39.3954 27.4001 40.0269C27.4001 40.867 28.0864 41.5534 28.932 41.5534H31.0515C31.8916 41.5534 32.578 40.867 32.578 40.0269C32.578 39.3954 32.9294 38.8738 33.5115 38.6322C34.0935 38.3906 34.7085 38.5169 35.1532 38.9617C35.4443 39.2472 35.8286 39.4064 36.235 39.4064C36.6413 39.4064 37.0257 39.2472 37.3167 38.9617L38.8157 37.4626C39.1012 37.1716 39.2605 36.7872 39.2605 36.3809C39.2605 35.9691 39.1012 35.5847 38.8157 35.2992C38.3709 34.8544 38.2446 34.2395 38.4862 33.6574C38.7278 33.0754 39.2495 32.724 39.8809 32.724ZM36.9488 33.015C36.4656 34.1845 36.6907 35.4584 37.5363 36.3809L36.235 37.6823C35.3125 36.8367 34.0386 36.606 32.869 37.0947C31.7049 37.5779 30.9637 38.6377 30.9143 39.8841H29.0693C29.0199 38.6377 28.2786 37.5724 27.109 37.0892C25.945 36.606 24.6656 36.8367 23.7486 37.6823L22.4472 36.3809C23.2928 35.4584 23.518 34.1845 23.0348 33.015C22.5516 31.8509 21.4918 31.1096 20.2399 31.0602V29.2153C21.4918 29.1603 22.5516 28.4246 23.0348 27.255C23.518 26.0854 23.2928 24.8115 22.4472 23.8946L23.7486 22.5877C24.6656 23.4388 25.945 23.6639 27.109 23.1807C28.2786 22.6975 29.0199 21.6323 29.0693 20.3858H30.9143C30.9637 21.6323 31.7049 22.6975 32.8745 23.1807C34.0386 23.6639 35.3125 23.4388 36.235 22.5877L37.5363 23.8946C36.6907 24.8115 36.4656 26.0854 36.9488 27.255C37.432 28.4246 38.4917 29.1658 39.7382 29.2153V31.0602C38.4917 31.1096 37.432 31.8509 36.9488 33.015ZM51.2581 25.767C48.8476 25.767 46.8874 27.7272 46.8874 30.1377C46.8874 32.5428 48.8476 34.503 51.2581 34.503C53.6687 34.503 55.6289 32.5483 55.6289 30.1377C55.6289 27.7272 53.6687 25.767 51.2581 25.767ZM51.2581 32.8338C49.7701 32.8338 48.5566 31.6258 48.5566 30.1377C48.5566 28.6497 49.7701 27.4362 51.2581 27.4362C52.7462 27.4362 53.9597 28.6497 53.9597 30.1377C53.9597 31.6258 52.7462 32.8338 51.2581 32.8338ZM58.1328 28.0841C57.6386 28.0841 57.4464 27.7053 57.397 27.5899C57.3531 27.4746 57.2213 27.0738 57.5727 26.7279C58.0834 26.2117 58.0834 25.3771 57.5727 24.8664L56.5294 23.8232C56.0133 23.3125 55.1787 23.3125 54.668 23.8232C54.3166 24.1691 53.9157 24.0428 53.8004 23.9934C53.6851 23.9495 53.3117 23.7518 53.3117 23.2631C53.3117 22.5383 52.7187 21.9453 51.9939 21.9453H50.5224C49.7975 21.9453 49.2045 22.5383 49.2045 23.2631C49.2045 23.7518 48.8311 23.9495 48.7158 23.9934C48.6005 24.0428 48.1942 24.1691 47.8483 23.8232C47.3376 23.3125 46.4975 23.3125 45.9868 23.8232L44.9436 24.8664C44.4329 25.3771 44.4329 26.2117 44.9436 26.7279C45.2895 27.0738 45.1632 27.4746 45.1138 27.5899C45.0699 27.7053 44.8777 28.0841 44.3835 28.0841C43.6587 28.0841 43.0657 28.6717 43.0657 29.4019V30.8735C43.0657 31.5983 43.6587 32.1913 44.3835 32.1913C44.8722 32.1913 45.0699 32.5647 45.1138 32.68C45.1632 32.7953 45.295 33.1962 44.9436 33.5421C44.4329 34.0583 44.4329 34.8929 44.9436 35.409L45.9868 36.4468C46.2339 36.6994 46.5634 36.8367 46.9203 36.8367C47.2717 36.8367 47.6012 36.6994 47.8483 36.4468C48.1997 36.1009 48.6005 36.2272 48.7158 36.2766C48.8311 36.326 49.2045 36.5182 49.2045 37.0069C49.2045 37.7372 49.7975 38.3302 50.5224 38.3302H51.9939C52.7187 38.3302 53.3117 37.7372 53.3117 37.0069C53.3117 36.5182 53.6851 36.326 53.8004 36.2766C53.9157 36.2327 54.3166 36.1009 54.668 36.4468C54.9151 36.6994 55.2445 36.8367 55.596 36.8367C55.9474 36.8367 56.2823 36.6994 56.5294 36.4468L57.5727 35.409C58.0834 34.8929 58.0834 34.0583 57.5727 33.5421C57.2213 33.1962 57.3531 32.7953 57.397 32.68C57.4464 32.5647 57.6386 32.1913 58.1328 32.1913C58.8576 32.1913 59.4506 31.5983 59.4506 30.8735V29.4019C59.4506 28.6717 58.8576 28.0841 58.1328 28.0841ZM57.7814 30.5441C56.9193 30.6649 56.2 31.214 55.8595 32.0431C55.5136 32.8667 55.6344 33.7672 56.156 34.4591L55.5795 35.0356C54.8876 34.5085 53.9926 34.3932 53.1635 34.7336C52.3344 35.0796 51.7853 35.7989 51.6645 36.6555H50.8518C50.731 35.7934 50.1819 35.0796 49.3528 34.7336C48.5237 34.3932 47.6286 34.5085 46.9368 35.0356L46.3602 34.4591C46.8819 33.7672 47.0027 32.8667 46.6567 32.0431C46.3163 31.214 45.597 30.6649 44.7349 30.5441V29.7259C45.597 29.6106 46.3163 29.0615 46.6567 28.2324C47.0027 27.4033 46.8819 26.5082 46.3602 25.8109L46.9368 25.2343C47.6286 25.7615 48.5237 25.8823 49.3528 25.5363C50.1819 25.1959 50.731 24.4766 50.8518 23.6145H51.6645C51.7853 24.4766 52.3344 25.1959 53.1635 25.5363C53.9926 25.8823 54.8876 25.7615 55.5795 25.2343L56.156 25.8109C55.6344 26.5082 55.5136 27.4033 55.8595 28.2324C56.2 29.0615 56.9193 29.6106 57.7814 29.7259V30.5441ZM1.85078 32.1913C2.33947 32.1913 2.53715 32.5647 2.58107 32.68C2.63049 32.7953 2.75678 33.1962 2.41086 33.5421C1.9002 34.0583 1.9002 34.8929 2.41086 35.409L3.45413 36.4468C3.70122 36.6994 4.03068 36.8367 4.3821 36.8367C4.73352 36.8367 5.06846 36.6994 5.31556 36.4468C5.66148 36.1009 6.06781 36.2272 6.18312 36.2766C6.29294 36.326 6.67181 36.5182 6.67181 37.0069C6.67181 37.7372 7.25934 38.3302 7.98964 38.3302H9.4612C10.186 38.3302 10.779 37.7372 10.779 37.0069C10.779 36.5182 11.1524 36.326 11.2677 36.2766C11.383 36.2327 11.7839 36.1009 12.1298 36.4468C12.3824 36.6994 12.7118 36.8367 13.0633 36.8367C13.4147 36.8367 13.7441 36.6994 13.9967 36.4468L15.0345 35.409C15.5506 34.8929 15.5506 34.0583 15.0345 33.5421C14.6886 33.1962 14.8203 32.7953 14.8643 32.68C14.9137 32.5647 15.1059 32.1913 15.5946 32.1913C16.3249 32.1913 16.9179 31.5983 16.9179 30.8735V29.4019C16.9179 28.6717 16.3249 28.0841 15.5946 28.0841C15.1059 28.0841 14.9137 27.7053 14.8643 27.5899C14.8203 27.4746 14.6886 27.0738 15.0345 26.7279C15.5506 26.2117 15.5506 25.3771 15.0345 24.8664L13.9967 23.8232C13.4806 23.3125 12.6459 23.3125 12.1298 23.8232C11.7839 24.1691 11.383 24.0428 11.2677 23.9934C11.1524 23.9495 10.779 23.7518 10.779 23.2631C10.779 22.5383 10.186 21.9453 9.4612 21.9453H7.98964C7.25934 21.9453 6.67181 22.5383 6.67181 23.2631C6.67181 23.7518 6.29294 23.9495 6.17763 23.9934C6.06781 24.0428 5.66148 24.1691 5.31556 23.8232C4.79941 23.3125 3.96479 23.3125 3.45413 23.8232L2.41086 24.8664C1.9002 25.3771 1.9002 26.2117 2.41086 26.7279C2.75678 27.0738 2.63049 27.4746 2.58107 27.5899C2.53715 27.7053 2.33947 28.0841 1.85078 28.0841C1.12598 28.0841 0.532959 28.6717 0.532959 29.4019V30.8735C0.532959 31.5983 1.12598 32.1913 1.85078 32.1913ZM2.2022 29.7259C3.06428 29.6106 3.78359 29.0615 4.12402 28.2324C4.46995 27.4033 4.34915 26.5082 3.82202 25.8109L4.39857 25.2343C5.09592 25.7615 5.99094 25.8823 6.82007 25.5363C7.6492 25.1959 8.19829 24.4766 8.3136 23.6145H9.13175C9.25255 24.4766 9.80164 25.1959 10.6308 25.5363C11.4544 25.8823 12.3549 25.7615 13.0468 25.2343L13.6233 25.8109C13.0962 26.5082 12.9809 27.4033 13.3213 28.2324C13.6673 29.0615 14.3866 29.6106 15.2431 29.7259V30.5441C14.3866 30.6649 13.6673 31.214 13.3213 32.0431C12.9809 32.8667 13.0962 33.7672 13.6233 34.4591L13.0468 35.0356C12.3549 34.5085 11.4544 34.3932 10.6308 34.7336C9.80164 35.0796 9.25255 35.7989 9.13175 36.6555H8.3136C8.19829 35.7934 7.6492 35.0796 6.82007 34.7336C5.99094 34.3932 5.09592 34.5085 4.39857 35.0356L3.82202 34.4591C4.34915 33.7672 4.46995 32.8667 4.12402 32.0431C3.78359 31.214 3.06428 30.6649 2.2022 30.5441V29.7259ZM8.72542 34.503C11.1359 34.503 13.0962 32.5483 13.0962 30.1377C13.0962 27.7272 11.1359 25.767 8.72542 25.767C6.31491 25.767 4.35464 27.7272 4.35464 30.1377C4.35464 32.5428 6.31491 34.503 8.72542 34.503ZM8.72542 27.4362C10.2135 27.4362 11.4215 28.6497 11.4215 30.1377C11.4215 31.6258 10.2135 32.8338 8.72542 32.8338C7.23738 32.8338 6.02389 31.6258 6.02389 30.1377C6.02389 28.6497 7.23738 27.4362 8.72542 27.4362ZM23.485 17.5415L30.8484 15.3781C30.8484 15.3836 30.8539 15.3891 30.8593 15.3946C31.3151 16.1853 32.0454 16.7509 32.9239 16.9815L38.2501 18.4036C40.15 19.7269 41.6435 20.2321 43.0437 20.2321C44.5482 20.2321 45.9374 19.6446 47.5792 18.8429C49.2155 18.0412 50.8683 17.2505 52.5595 16.4543L52.5979 16.5477C52.9384 17.3219 53.7016 17.7831 54.4978 17.7831C54.7778 17.7831 55.0579 17.7282 55.3269 17.6074L58.2042 16.3445C58.7148 16.1249 59.1047 15.7186 59.3078 15.2024C59.5055 14.6863 59.4945 14.1207 59.2694 13.6155L54.1244 1.91437C53.6632 0.871096 52.4387 0.393385 51.3954 0.854623L48.5182 2.11205C48.0075 2.33717 47.6176 2.7435 47.4145 3.25965C47.2168 3.7758 47.2278 4.33587 47.4529 4.84653L47.8647 5.77998L45.5036 6.92759C44.8667 7.23508 44.2352 7.28999 43.5599 7.09781L37.5198 5.3462C35.4662 4.75318 33.1546 5.65369 31.2931 6.3785C31.1668 6.42791 31.046 6.47733 30.9252 6.52126L19.6029 10.8975C17.6537 11.6498 16.4566 14.0274 17.0881 15.8888C17.3407 16.641 18.5597 18.9912 23.485 17.5415ZM48.9739 3.86365C49.0123 3.76481 49.0892 3.68794 49.1881 3.64401L52.0653 2.3811C52.2685 2.29325 52.5046 2.38659 52.5979 2.58976L57.7429 14.2854C57.7868 14.3843 57.7868 14.4941 57.7484 14.5929C57.71 14.6972 57.6331 14.7741 57.5343 14.818L54.657 16.081C54.4539 16.1688 54.2177 16.0755 54.1244 15.8723L48.9794 4.17663C48.9355 4.07231 48.9355 3.96249 48.9739 3.86365ZM20.2069 12.4515L31.5292 8.08068C31.65 8.03126 31.7763 7.98734 31.9026 7.93792C33.5224 7.30097 35.5431 6.51577 37.0586 6.94955L43.0931 8.70116C44.1693 9.00865 45.2236 8.92079 46.2339 8.4321L48.5346 7.30646L51.8841 14.9279C50.1764 15.735 48.5017 16.5312 46.8434 17.3439C43.9662 18.7496 42.4342 19.3206 39.0957 16.954C39.0134 16.8991 38.92 16.8552 38.8267 16.8332L33.3522 15.3671C32.9075 15.2518 32.5341 14.9608 32.3035 14.56C32.0728 14.1591 32.0069 13.6924 32.1277 13.2476C32.2431 12.8029 32.5341 12.4295 32.9349 12.1989C33.3358 11.9628 33.8025 11.9024 34.2472 12.0177L41.5227 13.9615C41.9675 14.0823 42.4232 13.8187 42.544 13.3739C42.6648 12.9292 42.3958 12.4679 41.951 12.3526L34.681 10.4088C33.8025 10.1727 32.8855 10.2935 32.1003 10.7493C31.3096 11.2105 30.7495 11.9408 30.5134 12.8139C30.4311 13.1323 30.3926 13.4508 30.3981 13.7693L23.0128 15.9437C20.6517 16.6355 19.0264 16.4159 18.6695 15.3507C18.3565 14.4337 19.0044 12.9182 20.2069 12.4515Z" fill="#E6E3D9"/>
    </svg>
    