<svg width="30" height="30" viewBox="0 0 30 30" fill="none" xmlns="http://www.w3.org/2000/svg">
  <path d="M9.16992 26.2454L8.43164 27.9739C7.33594 27.4172 6.32812 26.7317 5.41406 25.929L6.74414 24.5989C7.47656 25.2375 8.29102 25.7942 9.16992 26.2454ZM2.37891 15.9504H0.498047C0.580078 17.1926 0.814453 18.3938 1.18359 19.5305L2.92969 18.8333C2.64258 17.9133 2.44922 16.9465 2.37891 15.9504ZM2.37891 14.0754C2.46094 12.9739 2.68359 11.9075 3.0293 10.9055L1.30078 10.1672C0.861328 11.3977 0.585938 12.7102 0.498047 14.0754H2.37891ZM3.76758 9.18286C4.22461 8.30981 4.77539 7.49536 5.41406 6.75122L4.08398 5.42114C3.28125 6.33521 2.58984 7.34302 2.03906 8.43872L3.76758 9.18286ZM23.2617 24.5989C22.4473 25.302 21.5391 25.9055 20.5605 26.3801L21.2578 28.1262C22.4707 27.5461 23.5898 26.802 24.5918 25.9231L23.2617 24.5989ZM6.73828 5.427C7.55273 4.72388 8.46094 4.12036 9.43945 3.64575L8.74219 1.89966C7.5293 2.47974 6.41016 3.22388 5.41406 4.10278L6.73828 5.427ZM26.2324 20.843C25.7754 21.7161 25.2246 22.5305 24.5859 23.2747L25.916 24.6047C26.7188 23.6907 27.4102 22.677 27.9609 21.5872L26.2324 20.843ZM27.6211 15.9504C27.5391 17.052 27.3164 18.1184 26.9707 19.1204L28.6992 19.8586C29.1387 18.6223 29.4141 17.3098 29.4961 15.9446H27.6211V15.9504ZM18.8203 27.0833C17.9004 27.3762 16.9336 27.5637 15.9375 27.634V29.5149C17.1797 29.4329 18.3809 29.1985 19.5176 28.8293L18.8203 27.0833ZM14.0625 27.634C12.9609 27.552 11.8945 27.3293 10.8926 26.9836L10.1543 28.7122C11.3906 29.1516 12.7031 29.427 14.0684 29.509V27.634H14.0625ZM27.0703 11.1926C27.3633 12.1125 27.5508 13.0793 27.6211 14.0754H29.502C29.4199 12.8333 29.1855 11.6321 28.8164 10.4954L27.0703 11.1926ZM5.41406 23.2747C4.71094 22.4602 4.10742 21.552 3.63281 20.5735L1.88672 21.2708C2.4668 22.4836 3.21094 23.6028 4.08984 24.6047L5.41406 23.2747ZM15.9375 2.39185C17.0391 2.47388 18.0996 2.69653 19.1074 3.04224L19.8457 1.31372C18.6152 0.874268 17.3027 0.598877 15.9375 0.510986V2.39185ZM11.1797 2.94263C12.0996 2.64966 13.0664 2.46216 14.0625 2.39185V0.510986C12.8203 0.593018 11.6191 0.827393 10.4824 1.19653L11.1797 2.94263ZM25.916 5.42114L24.5859 6.75122C25.2891 7.56567 25.8926 8.47388 26.373 9.45239L28.1191 8.75513C27.5391 7.54224 26.7949 6.4231 25.916 5.42114ZM23.2617 5.427L24.5918 4.09692C23.6777 3.29419 22.6699 2.60278 21.5742 2.052L20.8359 3.78052C21.7031 4.23755 22.5234 4.78833 23.2617 5.427Z" fill="#F97316"/>
  <path d="M15 22.9817C15.9061 22.9817 16.6406 22.2472 16.6406 21.3411C16.6406 20.435 15.9061 19.7004 15 19.7004C14.0939 19.7004 13.3594 20.435 13.3594 21.3411C13.3594 22.2472 14.0939 22.9817 15 22.9817Z" fill="#F97316"/>
  <path d="M15.4512 18.2942H14.5137C14.127 18.2942 13.8106 17.9778 13.8106 17.5911C13.8106 13.4309 18.3457 13.8469 18.3457 11.2747C18.3457 10.1028 17.3027 8.91919 14.9824 8.91919C13.2773 8.91919 12.3867 9.48169 11.5137 10.6008C11.2852 10.8938 10.8633 10.9524 10.5645 10.7415L9.79688 10.2024C9.46876 9.97388 9.39258 9.51099 9.64454 9.19458C10.8867 7.60083 12.3633 6.57544 14.9883 6.57544C18.0527 6.57544 20.6953 8.32153 20.6953 11.2747C20.6953 15.2356 16.1602 14.9954 16.1602 17.5911C16.1543 17.9778 15.8379 18.2942 15.4512 18.2942Z" fill="#F97316"/>
  </svg>
  